<svg width="30" height="30" viewBox="0 0 30 30" fill="none" xmlns="http://www.w3.org/2000/svg">
<g clip-path="url(#clip0)">
<path d="M29.8875 28.6125L23.325 16.7375C23.15 16.425 22.875 16.275 22.4875 16.25C22.1375 16.25 21.825 16.45 21.6625 16.7625L20.6 18.8375L25.575 27.6875C25.975 28.3875 26.0375 29.2375 25.7625 30H29.0625C29.4 30 29.7 29.825 29.875 29.5375C30.0375 29.25 30.0375 28.9 29.8875 28.6125Z" fill="#003340"/>
<path d="M29.8875 28.6125L23.325 16.7375C23.15 16.425 22.875 16.275 22.4875 16.25C22.1375 16.25 21.825 16.45 21.6625 16.7625L20.6 18.8375L25.575 27.6875C25.975 28.3875 26.0375 29.2375 25.7625 30H29.0625C29.4 30 29.7 29.825 29.875 29.5375C30.0375 29.25 30.0375 28.9 29.8875 28.6125Z" fill="url(#paint0_linear)"/>
<path d="M23.9375 28.6L17.95 17.9375L15.5625 19.9625C15.0625 20.3875 14.4125 20.625 13.75 20.625C13.05 20.625 12.3875 20.375 11.875 19.9125C11.3625 20.375 10.7 20.625 10 20.625C9.33751 20.625 8.68751 20.3875 8.17501 19.95L5.90001 18.025L0.112509 28.6125C-0.0499908 28.9 -0.0374908 29.25 0.125009 29.5375C0.300009 29.825 0.612509 30 0.937509 30H23.125C23.4625 30 23.7625 29.825 23.9375 29.5375C24.1 29.25 24.1 28.8875 23.9375 28.6Z" fill="#003340"/>
<path d="M23.9375 28.6L17.95 17.9375L15.5625 19.9625C15.0625 20.3875 14.4125 20.625 13.75 20.625C13.05 20.625 12.3875 20.375 11.875 19.9125C11.3625 20.375 10.7 20.625 10 20.625C9.33751 20.625 8.68751 20.3875 8.17501 19.95L5.90001 18.025L0.112509 28.6125C-0.0499908 28.9 -0.0374908 29.25 0.125009 29.5375C0.300009 29.825 0.612509 30 0.937509 30H23.125C23.4625 30 23.7625 29.825 23.9375 29.5375C24.1 29.25 24.1 28.8875 23.9375 28.6Z" fill="url(#paint1_linear)"/>
<path d="M19.0625 6.24999H11.875C11.3575 6.24999 10.9375 5.82999 10.9375 5.31249V0.937492C10.9375 0.419992 11.3575 -7.62939e-06 11.875 -7.62939e-06H19.0625C19.4288 -7.62939e-06 19.7613 0.212492 19.9138 0.546242C20.0675 0.878742 20.0125 1.26999 19.7738 1.54874L18.4225 3.12499L19.775 4.70249C20.0138 4.98124 20.0675 5.37249 19.915 5.70499C19.7613 6.03749 19.4288 6.24999 19.0625 6.24999Z" fill="#003340"/>
<path d="M19.0625 6.24999H11.875C11.3575 6.24999 10.9375 5.82999 10.9375 5.31249V0.937492C10.9375 0.419992 11.3575 -7.62939e-06 11.875 -7.62939e-06H19.0625C19.4288 -7.62939e-06 19.7613 0.212492 19.9138 0.546242C20.0675 0.878742 20.0125 1.26999 19.7738 1.54874L18.4225 3.12499L19.775 4.70249C20.0138 4.98124 20.0675 5.37249 19.915 5.70499C19.7613 6.03749 19.4288 6.24999 19.0625 6.24999Z" fill="url(#paint2_linear)"/>
<path d="M11.875 9.99999C11.3575 9.99999 10.9375 9.57999 10.9375 9.06249V0.937492C10.9375 0.419992 11.3575 -7.62939e-06 11.875 -7.62939e-06C12.3925 -7.62939e-06 12.8125 0.419992 12.8125 0.937492V9.06249C12.8125 9.57999 12.3925 9.99999 11.875 9.99999Z" fill="#003340"/>
<path d="M11.875 9.99999C11.3575 9.99999 10.9375 9.57999 10.9375 9.06249V0.937492C10.9375 0.419992 11.3575 -7.62939e-06 11.875 -7.62939e-06C12.3925 -7.62939e-06 12.8125 0.419992 12.8125 0.937492V9.06249C12.8125 9.57999 12.3925 9.99999 11.875 9.99999Z" fill="#2E94CF"/>
<path d="M17.0125 16.275L14.35 18.525C14.175 18.675 13.9625 18.75 13.75 18.75C13.5125 18.75 13.275 18.6625 13.0875 18.475L11.875 17.2625L10.6625 18.475C10.3125 18.825 9.7625 18.8375 9.4 18.525L6.8125 16.35L7.7375 14.675L11.05 8.6125C11.2125 8.3125 11.525 8.125 11.875 8.125C12.1875 8.0875 12.525 8.3 12.6875 8.6L16.075 14.6125L17.0125 16.275Z" fill="url(#paint3_linear)"/>
</g>
<defs>
<linearGradient id="paint0_linear" x1="9.30627" y1="7.15381" x2="25.9074" y2="43.0079" gradientUnits="userSpaceOnUse">
<stop stop-color="#2E61E8"/>
<stop offset="1" stop-color="#2EE8A7"/>
</linearGradient>
<linearGradient id="paint1_linear" x1="-28.9183" y1="9.95767" x2="-23.007" y2="47.2169" gradientUnits="userSpaceOnUse">
<stop stop-color="#2E61E8"/>
<stop offset="1" stop-color="#2EE8A7"/>
</linearGradient>
<linearGradient id="paint2_linear" x1="12.5" y1="6" x2="20.269" y2="10.7314" gradientUnits="userSpaceOnUse">
<stop stop-color="#2E94CF"/>
<stop offset="1" stop-color="#2EE8A7"/>
</linearGradient>
<linearGradient id="paint3_linear" x1="-5.44438" y1="1.089" x2="4.56746" y2="31.4457" gradientUnits="userSpaceOnUse">
<stop stop-color="#2E61E8"/>
<stop offset="1" stop-color="#2EE8A7"/>
</linearGradient>
<clipPath id="clip0">
<rect width="30" height="30" fill="white"/>
</clipPath>
</defs>
</svg>