<svg width="30" height="30" viewBox="0 0 30 30" fill="none" xmlns="http://www.w3.org/2000/svg">
<g clip-path="url(#clip0)">
<path d="M5.3125 7.5H2.1875C0.98125 7.5 0 8.48125 0 9.6875V23.75H2.5C3.19 23.75 3.75 24.31 3.75 25C3.75 25.69 3.19 26.25 2.5 26.25H0V27.8125C0 29.0187 0.98125 30 2.1875 30H5.3125C6.51875 30 7.5 29.0187 7.5 27.8125V9.6875C7.5 8.48125 6.51875 7.5 5.3125 7.5ZM5 20C5 20.69 4.44 21.25 3.75 21.25C3.06 21.25 2.5 20.69 2.5 20V12.5C2.5 11.81 3.06 11.25 3.75 11.25C4.44 11.25 5 11.81 5 12.5V20Z" fill="url(#paint0_linear)"/>
<path d="M14.0625 -7.62939e-06H10.9375C9.73125 -7.62939e-06 8.75 0.981242 8.75 2.18749V23.75H11.25C11.94 23.75 12.5 24.31 12.5 25C12.5 25.69 11.94 26.25 11.25 26.25H8.75V27.8125C8.75 29.0187 9.73125 30 10.9375 30H14.0625C15.2687 30 16.25 29.0187 16.25 27.8125V2.18749C16.25 0.981242 15.2687 -7.62939e-06 14.0625 -7.62939e-06ZM13.75 20C13.75 20.69 13.19 21.25 12.5 21.25C11.81 21.25 11.25 20.69 11.25 20V4.99999C11.25 4.30999 11.81 3.74999 12.5 3.74999C13.19 3.74999 13.75 4.30999 13.75 4.99999V20Z" fill="url(#paint1_linear)"/>
<path d="M22.555 7.47875L19.5363 8.2875C18.3713 8.6 17.6775 9.80125 17.99 10.9662L21.63 24.55L24.045 23.9025C24.7113 23.7237 25.3975 24.12 25.5763 24.7862C25.755 25.4525 25.3588 26.1387 24.6925 26.3175L22.2775 26.965L22.6825 28.4737C22.995 29.6387 24.1963 30.3325 25.3613 30.02L28.38 29.2112C29.545 28.8987 30.2388 27.6975 29.9263 26.5325L25.2338 9.02625C24.9225 7.86125 23.72 7.16625 22.555 7.47875ZM25.4888 19.6337C25.6675 20.3 25.2713 20.9862 24.605 21.165C23.9388 21.3437 23.2525 20.9475 23.0738 20.2812L21.1325 13.0362C20.9538 12.37 21.35 11.6837 22.0163 11.505C22.6825 11.3262 23.3688 11.7225 23.5475 12.3887L25.4888 19.6337Z" fill="url(#paint2_linear)"/>
</g>
<defs>
<linearGradient id="paint0_linear" x1="-9.01241" y1="-7.38466" x2="26.5639" y2="30.0855" gradientUnits="userSpaceOnUse">
<stop stop-color="#2E61E8"/>
<stop offset="1" stop-color="#2EE8A7"/>
</linearGradient>
<linearGradient id="paint1_linear" x1="-0.26241" y1="-19.8462" x2="45.9457" y2="16.6547" gradientUnits="userSpaceOnUse">
<stop stop-color="#2E61E8"/>
<stop offset="1" stop-color="#2EE8A7"/>
</linearGradient>
<linearGradient id="paint2_linear" x1="3.39178" y1="-7.6071" x2="34.9456" y2="45.4973" gradientUnits="userSpaceOnUse">
<stop stop-color="#2E61E8"/>
<stop offset="1" stop-color="#2EE8A7"/>
</linearGradient>
<clipPath id="clip0">
<rect width="30" height="30" fill="white"/>
</clipPath>
</defs>
</svg>
