<svg width="92" height="96" viewBox="0 0 92 96" fill="none" xmlns="http://www.w3.org/2000/svg">
<g clip-path="url(#clip0)">
<path d="M46 95.9334C70.2254 95.9334 89.8639 75.5093 89.8639 50.3149C89.8639 25.1205 70.2254 4.69638 46 4.69638C21.7746 4.69638 2.13605 25.1205 2.13605 50.3149C2.13605 75.5093 21.7746 95.9334 46 95.9334Z" fill="#1A2B63"/>
<path d="M38.981 71.1551C41.2459 71.1551 43.3323 72.3397 44.5625 74.3242C44.5928 74.3731 44.6436 74.4046 44.6995 74.4089C44.7039 74.4092 44.7086 74.4094 44.7131 74.4094C44.7643 74.4094 44.8132 74.3867 44.8472 74.3465C46.6912 72.1771 49.3424 70.9329 52.1209 70.9329C53.0676 70.9329 53.9821 71.077 54.8478 71.3413L51.6527 62.8236H40.3473L37.1173 71.4342C37.709 71.2536 38.334 71.1551 38.981 71.1551Z" fill="#D9EAFC"/>
<path d="M41.8211 62.8235H40.3473L37.1173 71.434C37.62 71.2807 38.1478 71.1908 38.6917 71.1659L41.8211 62.8235Z" fill="#AEC1ED"/>
<path d="M35.5418 79.9561C35.5489 80.0052 35.5745 80.0494 35.613 80.0788C35.6438 80.1024 35.6811 80.1149 35.7188 80.1149C35.7281 80.1149 35.7376 80.1142 35.7469 80.1127C36.3861 80.0069 37.0279 79.9533 37.6546 79.9533C40.7159 79.9533 43.6362 81.1496 45.8779 83.3218C45.9123 83.3551 45.9561 83.3717 46 83.3717C46.0439 83.3717 46.0877 83.3551 46.1221 83.3218C48.3636 81.1496 51.2841 79.9533 54.3454 79.9533C54.9719 79.9533 55.6139 80.0069 56.2531 80.1127C56.2626 80.1142 56.2719 80.1149 56.2812 80.1149C56.3189 80.1149 56.3562 80.1024 56.387 80.0788C56.4255 80.0494 56.4511 80.0052 56.4582 79.9561C56.7891 77.6401 57.6272 75.4467 58.8845 73.5324C57.116 71.806 54.7382 70.7465 52.1209 70.7465C49.1709 70.7465 46.5244 72.092 44.7131 74.223C43.4999 72.2659 41.3869 70.9687 38.9812 70.9687C36.6736 70.9687 34.6355 72.1624 33.4021 73.9873C34.4996 75.7914 35.2369 77.8213 35.5418 79.9561Z" fill="#AEC1ED"/>
<path d="M35.719 79.9287C34.6416 72.3859 28.3902 66.5986 20.8377 66.5986C15.5946 66.5986 10.9798 69.3886 8.28635 73.6177C12.4103 80.8212 18.3885 86.74 25.5354 90.6681C26.2997 85.1629 30.4496 80.7994 35.719 79.9287Z" fill="#445EA0"/>
<path d="M22.3402 68.5226C26.1773 68.5226 29.6946 69.9381 32.4423 72.2907C29.6828 68.8153 25.5102 66.5986 20.8377 66.5986C15.5946 66.5986 10.9798 69.3886 8.28635 73.6177C8.64209 74.2391 9.0127 74.8504 9.39566 75.4521C12.2815 71.2579 17.0026 68.5226 22.3402 68.5226Z" fill="#293D7C"/>
<path d="M71.1623 66.5986C63.6098 66.5986 57.3584 72.386 56.281 79.9287C61.5504 80.7994 65.7003 85.1629 66.4646 90.6681C73.6113 86.74 79.5897 80.821 83.7137 73.6177C81.0202 69.3886 76.4054 66.5986 71.1623 66.5986Z" fill="#445EA0"/>
<path d="M72.0725 66.6277C71.7714 66.6091 71.4681 66.5986 71.1623 66.5986C63.6098 66.5986 57.3584 72.386 56.2809 79.9287C56.8424 80.0215 57.3903 80.1563 57.9234 80.3255C59.4205 73.198 65.0502 67.6789 72.0725 66.6277Z" fill="#293D7C"/>
<path d="M54.3452 79.7671C51.1197 79.7671 48.1873 81.066 46 83.1855C43.8127 81.0659 40.8802 79.7671 37.6547 79.7671C31.4896 79.7671 26.3898 84.5051 25.5349 90.6705C31.645 94.0289 38.6081 95.9334 46 95.9334C53.3918 95.9334 60.3549 94.0289 66.4651 90.6705C65.6102 84.5051 60.5103 79.7671 54.3452 79.7671Z" fill="#293D7C"/>
<path d="M40.2146 81.3505C41.9038 81.3505 43.5158 81.6922 44.9913 82.3117C42.9461 80.7161 40.4079 79.7671 37.6545 79.7671C31.4894 79.7671 26.3896 84.5051 25.5347 90.6705C26.2549 91.0663 26.9874 91.4413 27.7305 91.7958C28.9851 85.8235 34.0955 81.3505 40.2146 81.3505Z" fill="#1A2B63"/>
<path d="M50.0333 62.8236H47.3264L47.6718 65.6652C47.7647 66.4304 48.4375 66.9717 49.1723 66.8755C49.908 66.7786 50.4291 66.08 50.336 65.3149L50.0333 62.8236Z" fill="#AEC1ED"/>
<path d="M41.9666 62.8235L41.2566 68.6663C41.1637 69.4314 41.6847 70.1302 42.4205 70.2269C42.4776 70.2343 42.5344 70.238 42.5906 70.238C43.2571 70.2379 43.8354 69.7221 43.9212 69.0164L44.6738 62.8233H41.9666V62.8235Z" fill="#AEC1ED"/>
<path d="M32.2335 37.0421C32.2335 35.5237 32.2883 34.0093 32.3907 32.506C28.0831 35.0287 25.1154 40.6489 25.1154 47.1556C25.1154 50.5921 25.937 53.8694 27.4912 56.6331C27.6371 56.8927 27.9012 57.0411 28.1755 57.0411C28.2757 57.0411 28.3773 57.0213 28.4748 56.9798C30.5175 56.1114 32.7003 55.6653 34.9638 55.6466C33.1765 49.9251 32.2335 43.5356 32.2335 37.0421Z" fill="#FE3745"/>
<path d="M27.1455 47.1556C27.1455 41.7814 29.1713 37.014 32.3032 34.0952C32.3272 33.5643 32.3549 33.0344 32.3909 32.506C28.0833 35.0287 25.1156 40.6489 25.1156 47.1556C25.1156 50.5921 25.9372 53.8694 27.4914 56.6331C27.6373 56.8927 27.9014 57.0411 28.1757 57.0411C28.2759 57.0411 28.3774 57.0213 28.475 56.9798C28.8116 56.8366 29.1536 56.7093 29.4975 56.5892C27.959 53.8346 27.1455 50.574 27.1455 47.1556Z" fill="#B7092B"/>
<path d="M59.6091 32.506C59.7115 34.0095 59.7663 35.5238 59.7663 37.0421C59.7663 43.5354 58.8233 49.925 57.0358 55.6466C59.2995 55.6653 61.4822 56.1114 63.5248 56.9798C63.6224 57.0213 63.7241 57.0411 63.8241 57.0411C64.0986 57.0411 64.3625 56.8925 64.5084 56.6331C66.0628 53.8694 66.8842 50.5921 66.8842 47.1556C66.8844 40.6489 63.9167 35.0287 59.6091 32.506Z" fill="#FE3745"/>
<path d="M39.1443 57.786V62.0786C39.1443 62.5907 39.5471 63.0096 40.0395 63.0096H51.9603C52.4526 63.0096 52.8555 62.5907 52.8555 62.0786V57.786H39.1443Z" fill="#FE3745"/>
<path d="M42.1892 62.0787V57.7861H39.1443V62.0787C39.1443 62.5907 39.5472 63.0097 40.0395 63.0097H43.0844C42.592 63.0097 42.1892 62.5907 42.1892 62.0787Z" fill="#B7092B"/>
<path d="M56.8951 17.4171H35.1047C33.1077 23.4039 32.0545 30.1424 32.0545 37.0421C32.0545 44.2148 33.1983 51.2652 35.3622 57.4308C35.4764 57.7559 35.7736 57.9723 36.1064 57.9723H55.8934C56.2262 57.9723 56.5236 57.7559 56.6376 57.4308C58.8015 51.2652 59.9453 44.2148 59.9453 37.0421C59.9455 30.1424 58.8922 23.4041 56.8951 17.4171Z" fill="#EEF6FF"/>
<path d="M37.8997 57.4308C35.7356 51.2652 34.592 44.2148 34.592 37.0421C34.592 30.1424 35.6452 23.4039 37.6422 17.4171H35.1049C33.1079 23.4039 32.0547 30.1424 32.0547 37.0421C32.0547 44.2148 33.1985 51.2652 35.3624 57.4308C35.4766 57.7559 35.7738 57.9723 36.1066 57.9723H38.6439C38.3111 57.9723 38.0139 57.7559 37.8997 57.4308Z" fill="#D9EAFC"/>
<path d="M40.84 17.4171V20.5068C40.84 21.0189 41.2428 21.4378 41.7351 21.4378H50.2648C50.7572 21.4378 51.16 21.0189 51.16 20.5068V17.4171H40.84Z" fill="#EA2A3D"/>
<path d="M42.8699 20.5068V17.4171H40.84V20.5068C40.84 21.0189 41.2428 21.4378 41.7351 21.4378H43.7651C43.2727 21.4378 42.8699 21.0189 42.8699 20.5068Z" fill="#B7092B"/>
<path d="M46 0.600021C45.8233 0.600021 45.6468 0.66128 45.5014 0.783613C41.5021 4.15175 38.1333 9.26102 35.7598 15.5592C35.5074 16.2293 35.2702 16.9126 35.0426 17.6032H56.9572C56.7296 16.9126 56.4924 16.2293 56.24 15.5592C53.8665 9.26102 50.4979 4.15175 46.4984 0.783613C46.3532 0.66128 46.1767 0.600021 46 0.600021Z" fill="#FE3745"/>
<path d="M47.2687 1.46175C47.0146 1.22881 46.758 1.00221 46.4986 0.783613C46.3532 0.66128 46.1767 0.600021 46 0.600021C45.8233 0.600021 45.6468 0.66128 45.5014 0.783613C41.5021 4.15175 38.1333 9.26102 35.7598 15.5592C35.5074 16.2293 35.2702 16.9126 35.0426 17.6032H37.5799C37.8075 16.9126 38.0447 16.2293 38.2971 15.5592C40.5168 9.66953 43.6066 4.82057 47.2687 1.46175Z" fill="#B7092B"/>
<path d="M46 43.7886C51.0448 43.7886 55.1344 39.5354 55.1344 34.2888C55.1344 29.0422 51.0448 24.789 46 24.789C40.9552 24.789 36.8655 29.0422 36.8655 34.2888C36.8655 39.5354 40.9552 43.7886 46 43.7886Z" fill="#445EA0"/>
<path d="M46 40.3833C49.2364 40.3833 51.86 37.6547 51.86 34.2888C51.86 30.9229 49.2364 28.1944 46 28.1944C42.7636 28.1944 40.14 30.9229 40.14 34.2888C40.14 37.6547 42.7636 40.3833 46 40.3833Z" fill="#69CDFF"/>
<path d="M42.2882 34.2892C42.2882 37.2734 44.3509 39.755 47.0742 40.2799C46.7258 40.3469 46.3672 40.3838 46 40.3838C42.7634 40.3838 40.14 37.6551 40.14 34.2892C40.14 30.9233 42.7636 28.1947 46 28.1947C46.367 28.1947 46.7258 28.2316 47.0742 28.2986C44.3509 28.8235 42.2882 31.305 42.2882 34.2892Z" fill="#52BBEF"/>
<path d="M19.885 33.8805C19.6797 33.8805 19.4945 33.7518 19.4159 33.5544C18.4164 31.0447 17.6795 30.2785 15.2662 29.2389C15.0764 29.1572 14.9529 28.9647 14.9529 28.7511C14.9529 28.5375 15.0766 28.345 15.2662 28.2633C17.6796 27.2233 18.4164 26.4569 19.4159 23.9474C19.4945 23.75 19.6797 23.6213 19.885 23.6213C20.0904 23.6213 20.2755 23.75 20.3541 23.9474C21.3538 26.4569 22.0907 27.2233 24.504 28.2633C24.6937 28.345 24.8175 28.5375 24.8175 28.7511C24.8175 28.9647 24.6937 29.1574 24.504 29.2389C22.0907 30.2783 21.3538 31.0447 20.3541 33.5544C20.2755 33.7518 20.0904 33.8805 19.885 33.8805Z" fill="#FFD00D"/>
<path d="M20.4309 32.4989C19.4313 29.9891 18.6944 29.2229 16.2812 28.1834C16.1619 28.1322 16.069 28.0368 16.0162 27.9203C15.7845 28.0331 15.5375 28.1463 15.2662 28.2633C15.0764 28.345 14.9529 28.5375 14.9529 28.7511C14.9529 28.9647 15.0766 29.1574 15.2662 29.2389C17.6795 30.2785 18.4164 31.0447 19.4159 33.5545C19.4945 33.7518 19.6797 33.8805 19.885 33.8805C20.0904 33.8805 20.2755 33.7518 20.3541 33.5545C20.4663 33.2724 20.5754 33.0154 20.6837 32.7747C20.5718 32.7197 20.4803 32.6229 20.4309 32.4989Z" fill="#FFAF10"/>
<path d="M73.8346 38.101C73.6541 38.101 73.4914 37.988 73.4223 37.8145C72.5437 35.6084 71.896 34.9349 69.7747 34.0212C69.6081 33.9496 69.4992 33.7801 69.4992 33.5924C69.4992 33.4045 69.6079 33.2355 69.7747 33.1636C71.8961 32.2496 72.5437 31.5759 73.4223 29.37C73.4914 29.1965 73.6541 29.0835 73.8346 29.0835C74.015 29.0835 74.1778 29.1965 74.2469 29.37C75.1256 31.5761 75.7734 32.2496 77.8948 33.1636C78.0614 33.2355 78.1701 33.4045 78.1701 33.5924C78.1701 33.7801 78.0614 33.9494 77.8946 34.0212C75.7734 34.9349 75.1256 35.6084 74.2469 37.8145C74.178 37.9878 74.0152 38.101 73.8346 38.101Z" fill="white"/>
<path d="M74.3144 36.8866C73.4357 34.6806 72.7881 34.0071 70.6667 33.0932C70.562 33.0482 70.4802 32.9646 70.4338 32.862C70.2302 32.961 70.0129 33.0606 69.7746 33.1634C69.6079 33.2353 69.4991 33.4044 69.4991 33.5922C69.4991 33.7799 69.6077 33.9492 69.7746 34.0211C71.896 34.9347 72.5436 35.6082 73.4221 37.8143C73.4912 37.9878 73.654 38.1008 73.8344 38.1008C74.0149 38.1008 74.1776 37.9878 74.2467 37.8143C74.3454 37.5665 74.4412 37.3404 74.5366 37.1287C74.4383 37.0807 74.3579 36.9956 74.3144 36.8866Z" fill="#D9EAFC"/>
<path d="M69.1797 18.4882C68.9693 18.4882 68.7797 18.3564 68.6991 18.1544C67.6754 15.5837 66.9208 14.7989 64.449 13.7344C64.2547 13.6508 64.1281 13.4534 64.1281 13.2348C64.1281 13.0159 64.2549 12.8189 64.449 12.7351C66.9209 11.67 67.6756 10.8852 68.6991 8.31493C68.7797 8.11272 68.9693 7.9809 69.1797 7.9809C69.39 7.9809 69.5796 8.11272 69.6602 8.31493C70.6841 10.8854 71.4387 11.6702 73.9105 12.7351C74.1048 12.8189 74.2313 13.0159 74.2313 13.2348C74.2313 13.4534 74.1046 13.6508 73.9103 13.7344C71.4386 14.7989 70.6841 15.5839 69.66 18.1544C69.5796 18.3564 69.39 18.4882 69.1797 18.4882Z" fill="#FF9518"/>
<path d="M69.7388 17.0733C68.7149 14.5029 67.9602 13.718 65.4885 12.6534C65.3664 12.6008 65.2713 12.5033 65.217 12.3839C64.98 12.4996 64.7267 12.6156 64.4488 12.7351C64.2545 12.8189 64.128 13.0159 64.128 13.2349C64.128 13.4534 64.2547 13.6508 64.4488 13.7344C66.9206 14.7991 67.6754 15.5839 68.6989 18.1544C68.7795 18.3564 68.9691 18.4882 69.1795 18.4882C69.3898 18.4882 69.5794 18.3564 69.66 18.1544C69.7751 17.8654 69.8867 17.6021 69.9977 17.3556C69.8829 17.2994 69.7893 17.2003 69.7388 17.0733Z" fill="#EF8318"/>
</g>
<defs>
<clipPath id="clip0">
<rect width="91.6667" height="95.3333" fill="white" transform="translate(0.166656 0.600021)"/>
</clipPath>
</defs>
</svg>