<svg width="40" height="35" viewBox="0 0 40 35" fill="none" xmlns="http://www.w3.org/2000/svg">
<path d="M35.7962 31.8795L27.1681 23.2158C29.3866 20.6697 30.6021 17.4662 30.6021 14.1312C30.6021 6.3394 24.0359 0 15.9652 0C7.89461 0 1.3284 6.3394 1.3284 14.1312C1.3284 21.9231 7.89461 28.2625 15.9652 28.2625C18.9951 28.2625 21.8823 27.3802 24.3509 25.7053L33.0445 34.4348C33.4079 34.7991 33.8966 35 34.4204 35C34.9161 35 35.3864 34.8175 35.7434 34.4857C36.502 33.781 36.5262 32.6124 35.7962 31.8795ZM15.9652 3.68641C21.9307 3.68641 26.7838 8.37184 26.7838 14.1312C26.7838 19.8906 21.9307 24.5761 15.9652 24.5761C9.99977 24.5761 5.14671 19.8906 5.14671 14.1312C5.14671 8.37184 9.99977 3.68641 15.9652 3.68641Z" fill="#1B7084" fill-opacity="0.75"/>
</svg>