<svg width="30" height="30" viewBox="0 0 30 30" fill="none" xmlns="http://www.w3.org/2000/svg">
<g clip-path="url(#clip0)">
<path d="M21.3163 29.815C20.5413 29.2388 13.75 24.0625 13.75 19.6725C13.75 17.0963 15.8538 15 18.4375 15C19.7663 15 21.005 15.5575 21.875 16.4925C22.745 15.5575 23.9838 15 25.3125 15C27.8963 15 30 17.0963 30 19.6725C30 24.0625 23.2088 29.2388 22.4338 29.815C22.1025 30.0613 21.6475 30.0613 21.3163 29.815Z" fill="url(#paint0_linear)"/>
<path d="M22.475 0.137499C19.2375 -0.337501 16.375 0.437499 13.75 2.5C11.125 0.437499 8.2625 -0.337501 5.025 0.137499C3.9375 0.287499 3.125 1.225 3.125 2.3V16.0125C3.125 16.625 3.3875 17.2125 3.85 17.625C4.3125 18.05 4.95 18.25 5.575 18.175C7.5625 17.95 9.4875 18.3625 11.2625 19.375C11.2875 18.7125 11.4 18.0625 11.6125 17.45C10.0375 16.6375 8.3625 16.2375 6.6375 16.2375C6.2125 16.2375 5.8 16.2625 5.3625 16.3125C5.225 16.325 5.1375 16.2625 5.1 16.225C5.0375 16.175 5 16.1 5 16.0125V2.3C5 2.15 5.125 2.0125 5.2875 1.9875C8.1125 1.575 10.5125 2.275 12.8125 4.1625C12.925 4.2375 13.025 4.3375 13.1375 4.425C13.4875 4.7375 14.0125 4.7375 14.3625 4.425C14.475 4.3375 14.575 4.2375 14.6875 4.1625C16.9875 2.275 19.3875 1.5875 22.2125 1.9875C22.375 2.0125 22.5 2.15 22.5 2.3V13.075C23.1 12.825 23.725 12.65 24.375 12.5625V2.3C24.375 1.225 23.5625 0.287499 22.475 0.137499Z" fill="url(#paint1_linear)"/>
<path d="M11.25 19.675C11.25 20.2 11.3125 20.725 11.4375 21.25H2.1875C0.9875 21.25 0 20.2625 0 19.0625V4.6875C0 3.4875 0.975 2.5125 2.175 2.5H3.75C4.2625 2.5 4.6875 2.9125 4.6875 3.4375C4.6875 3.95 4.275 4.375 3.75 4.375H2.1875C2.0125 4.375 1.875 4.525 1.875 4.6875V19.0625C1.875 19.2375 2.0125 19.375 2.1875 19.375H11.2625C11.25 19.475 11.25 19.575 11.25 19.675Z" fill="url(#paint2_linear)"/>
<path d="M27.5 4.6875V12.8375C26.9 12.65 26.275 12.5375 25.625 12.5125V4.6875C25.625 4.5125 25.4875 4.375 25.3125 4.375H23.75C23.2375 4.375 22.8125 3.95 22.8125 3.4375C22.8125 2.925 23.2375 2.5 23.75 2.5H25.3125C26.5125 2.5 27.5 3.4875 27.5 4.6875Z" fill="url(#paint3_linear)"/>
<path d="M14.6875 3.74999V13.5625C13.9625 14 13.325 14.5625 12.8125 15.225V3.74999C12.8125 3.23749 13.2375 2.81249 13.75 2.81249C14.2625 2.81249 14.6875 3.23749 14.6875 3.74999Z" fill="url(#paint4_linear)"/>
</g>
<defs>
<linearGradient id="paint0_linear" x1="-5.77693" y1="5.0771" x2="7.00779" y2="48.8402" gradientUnits="userSpaceOnUse">
<stop stop-color="#2E61E8"/>
<stop offset="1" stop-color="#2EE8A7"/>
</linearGradient>
<linearGradient id="paint1_linear" x1="-22.4102" y1="-12.8134" x2="-6.07072" y2="43.8175" gradientUnits="userSpaceOnUse">
<stop stop-color="#2E61E8"/>
<stop offset="1" stop-color="#2EE8A7"/>
</linearGradient>
<linearGradient id="paint2_linear" x1="-13.7439" y1="-9.90389" x2="10.5274" y2="36.8771" gradientUnits="userSpaceOnUse">
<stop stop-color="#2E61E8"/>
<stop offset="1" stop-color="#2EE8A7"/>
</linearGradient>
<linearGradient id="paint3_linear" x1="23" y1="3.5" x2="32.7202" y2="16.8395" gradientUnits="userSpaceOnUse">
<stop stop-color="#2EA0C9"/>
<stop offset="1" stop-color="#2EE8A7"/>
</linearGradient>
<linearGradient id="paint4_linear" x1="13.5" y1="2.5" x2="23.8191" y2="8.20551" gradientUnits="userSpaceOnUse">
<stop stop-color="#2E9ACC"/>
<stop offset="1" stop-color="#2EE8A7"/>
</linearGradient>
<clipPath id="clip0">
<rect width="30" height="30" fill="white"/>
</clipPath>
</defs>
</svg>